<svg width="41" height="41" viewBox="0 0 41 41" fill="none" xmlns="http://www.w3.org/2000/svg">
<path fill-rule="evenodd" clip-rule="evenodd" d="M21.9189 39.3815L20.3334 39.465L19.5781 25.125C19.3607 25.098 19.1478 25.0553 18.9406 24.998L12.6484 37.2198L11.2368 36.493L17.5087 24.3104C17.3154 24.1709 17.1334 24.0163 16.9645 23.8482L5.31813 31.7759L4.42469 30.4633L16.0539 22.5474C15.886 22.1842 15.7649 21.7941 15.6986 21.3843L1.37459 21.9546L1.31142 20.3681L15.7236 19.7943C15.7733 19.5399 15.8445 19.2928 15.9355 19.0551L2.94212 12.5815L3.65017 11.1604L16.7593 17.6917C16.9184 17.5106 17.0918 17.3423 17.2781 17.1886L8.80811 4.93204L10.1143 4.02937L18.6686 16.4079C18.8131 16.358 18.9612 16.3152 19.1123 16.28L18.3292 1.41131L19.9148 1.3278L20.6978 16.1961C21.0026 16.2338 21.2984 16.3023 21.5821 16.3985L28.6793 2.61295L30.091 3.33972L22.9726 17.1664C23.1202 17.2862 23.2602 17.4152 23.3916 17.5527L35.9258 9.02078L36.8192 10.3333L24.2698 18.8756C24.3493 19.0595 24.4169 19.2499 24.4717 19.446L39.3877 18.8521L39.4509 20.4386L24.6232 21.029C24.6083 21.2128 24.5823 21.3937 24.5458 21.5711L37.7578 28.1536L37.0498 29.5747L23.9519 23.0491C23.8444 23.2203 23.7256 23.384 23.5965 23.539L31.7783 35.3786L30.4721 36.2812L22.3756 24.5651C22.0029 24.779 21.5959 24.9414 21.1637 25.0419L21.9189 39.3815Z" fill="#83A17D"/>
</svg>
